<svg xmlns="http://www.w3.org/2000/svg" viewBox="60.00 13.00 398.68 154.00" width="399" height="154" role="img" aria-label="reqmesh logo">
<line x1="169.84" y1="113.00" x2="130.00" y2="136.00" stroke="#D3D6E2" stroke-width="1.6" stroke-linecap="round"/>
<line x1="130.00" y1="136.00" x2="90.16" y2="113.00" stroke="#D3D6E2" stroke-width="1.6" stroke-linecap="round"/>
<line x1="90.16" y1="67.00" x2="130.00" y2="44.00" stroke="#D3D6E2" stroke-width="1.6" stroke-linecap="round"/>
<line x1="130.00" y1="90.00" x2="90.16" y2="113.00" stroke="#D3D6E2" stroke-width="1.6" stroke-linecap="round"/>
<line x1="130.00" y1="44.00" x2="169.84" y2="67.00" stroke="#4F46E5" stroke-width="4.2" stroke-linecap="round"/>
<line x1="130.00" y1="44.00" x2="130.00" y2="90.00" stroke="#4F46E5" stroke-width="4.2" stroke-linecap="round"/>
<line x1="169.84" y1="67.00" x2="130.00" y2="90.00" stroke="#9536AE" stroke-width="4.2" stroke-linecap="round"/>
<line x1="130.00" y1="90.00" x2="169.84" y2="113.00" stroke="#4F46E5" stroke-width="4.2" stroke-linecap="round"/>
<line x1="130.00" y1="90.00" x2="130.00" y2="136.00" stroke="#4F46E5" stroke-width="4.2" stroke-linecap="round"/>
<line x1="90.16" y1="113.00" x2="90.16" y2="67.00" stroke="#DB2777" stroke-width="4.2" stroke-linecap="round"/>
<line x1="90.16" y1="67.00" x2="130.00" y2="90.00" stroke="#DB2777" stroke-width="4.2" stroke-linecap="round"/>
<line x1="130.00" y1="90.00" x2="169.84" y2="67.00" stroke="#9536AE" stroke-width="4.2" stroke-linecap="round"/>
<line x1="169.84" y1="67.00" x2="169.84" y2="113.00" stroke="#DB2777" stroke-width="4.2" stroke-linecap="round"/>
<circle cx="130.00" cy="44.00" r="9" fill="#4F46E5"/>
<circle cx="169.84" cy="67.00" r="9" fill="#9536AE"/>
<circle cx="90.16" cy="67.00" r="9" fill="#DB2777"/>
<circle cx="90.16" cy="113.00" r="9" fill="#DB2777"/>
<circle cx="169.84" cy="113.00" r="9" fill="#9536AE"/>
<circle cx="130.00" cy="136.00" r="9" fill="#4F46E5"/>
<circle cx="130.00" cy="90.00" r="12" fill="#9536AE"/>
<g>
<path d="M229.8828125 112.0V89.3046875Q229.8828125 86.1875 229.71875 82.4140625H234.3671875Q234.5859375 87.4453125 234.5859375 88.45703125H234.6953125Q235.87109375 84.65625 237.40234375 83.26171875Q238.93359375 81.8671875 241.72265625 81.8671875Q242.70703125 81.8671875 243.71875 82.140625V86.65234375Q242.734375 86.37890625 241.09375 86.37890625Q238.03125 86.37890625 236.41796875 89.017578125Q234.8046875 91.65625 234.8046875 96.578125V112.0Z" fill="#4F46E5"/>
<path d="M250.9953125 98.24609375Q250.9953125 103.33203125 253.10078125 106.09375Q255.20625 108.85546875 259.253125 108.85546875Q262.45234375 108.85546875 264.380078125 107.5703125Q266.3078125 106.28515625 266.99140625 104.31640625L271.31171875 105.546875Q268.659375 112.546875 259.253125 112.546875Q252.690625 112.546875 249.258984375 108.63671875Q245.82734375 104.7265625 245.82734375 97.015625Q245.82734375 89.6875 249.258984375 85.77734375Q252.690625 81.8671875 259.06171875 81.8671875Q272.1046875 81.8671875 272.1046875 97.58984375V98.24609375ZM267.01875 94.47265625Q266.60859375 89.796875 264.63984375 87.650390625Q262.67109375 85.50390625 258.9796875 85.50390625Q255.39765625 85.50390625 253.305859375 87.896484375Q251.2140625 90.2890625 251.05 94.47265625Z" fill="#4F46E5"/>
<path d="M286.62734375 112.546875Q280.99453125 112.546875 278.36953125 108.74609375Q275.74453125 104.9453125 275.74453125 97.34375Q275.74453125 81.8671875 286.62734375 81.8671875Q289.990625 81.8671875 292.178125 83.056640625Q294.365625 84.24609375 295.8421875 87.0078125H295.896875Q295.896875 86.1875 296.00625 84.177734375Q296.115625 82.16796875 296.225 82.03125H300.95546875Q300.7640625 83.64453125 300.7640625 90.09765625V123.62109375H295.8421875V111.6171875L295.9515625 107.1328125H295.896875Q294.4203125 110.05859375 292.26015625 111.302734375Q290.1 112.546875 286.62734375 112.546875ZM295.8421875 96.8515625Q295.8421875 91.08203125 293.95546875 88.29296875Q292.06875 85.50390625 287.93984375 85.50390625Q284.19375 85.50390625 282.553125 88.29296875Q280.9125 91.08203125 280.9125 97.1796875Q280.9125 103.38671875 282.566796875 106.06640625Q284.22109375 108.74609375 287.88515625 108.74609375Q292.06875 108.74609375 293.95546875 105.765625Q295.8421875 102.78515625 295.8421875 96.8515625Z" fill="#4F46E5"/>
<path d="M324.33750000000003 112.0V93.2421875Q324.33750000000003 88.94921875 323.16171875000003 87.30859375Q321.98593750000003 85.66796875 318.92343750000003 85.66796875Q315.77890625000003 85.66796875 313.94687500000003 88.07421875Q312.11484375000003 90.48046875 312.11484375000003 94.85546875V112.0H307.22031250000003V88.73046875Q307.22031250000003 83.5625 307.05625000000003 82.4140625H311.70468750000003Q311.73203125000003 82.55078125 311.75937500000003 83.15234375Q311.78671875000003 83.75390625 311.82773437500003 84.533203125Q311.86875000000003 85.3125 311.92343750000003 87.47265625H312.00546875000003Q313.59140625000003 84.328125 315.64218750000003 83.09765625Q317.69296875000003 81.8671875 320.64609375000003 81.8671875Q324.00937500000003 81.8671875 325.96445312500003 83.20703125Q327.91953125000003 84.546875 328.68515625000003 87.47265625H328.76718750000003Q330.29843750000003 84.4921875 332.47226562500003 83.1796875Q334.64609375000003 81.8671875 337.73593750000003 81.8671875Q342.22031250000003 81.8671875 344.25742187500003 84.30078125Q346.29453125000003 86.734375 346.29453125000003 92.28515625V112.0H341.42734375000003V93.2421875Q341.42734375000003 88.94921875 340.25156250000003 87.30859375Q339.07578125000003 85.66796875 336.01328125000003 85.66796875Q332.78671875000003 85.66796875 330.99570312500003 88.060546875Q329.20468750000003 90.453125 329.20468750000003 94.85546875V112.0Z" fill="#DB2777"/>
<path d="M356.33281250000005 98.24609375Q356.33281250000005 103.33203125 358.43828125000005 106.09375Q360.54375000000005 108.85546875 364.59062500000005 108.85546875Q367.78984375000005 108.85546875 369.71757812500005 107.5703125Q371.64531250000005 106.28515625 372.32890625000005 104.31640625L376.64921875000005 105.546875Q373.99687500000005 112.546875 364.59062500000005 112.546875Q358.02812500000005 112.546875 354.59648437500005 108.63671875Q351.16484375000005 104.7265625 351.16484375000005 97.015625Q351.16484375000005 89.6875 354.59648437500005 85.77734375Q358.02812500000005 81.8671875 364.39921875000005 81.8671875Q377.44218750000005 81.8671875 377.44218750000005 97.58984375V98.24609375ZM372.35625000000005 94.47265625Q371.94609375000005 89.796875 369.97734375000005 87.650390625Q368.00859375000005 85.50390625 364.31718750000005 85.50390625Q360.73515625000005 85.50390625 358.64335937500005 87.896484375Q356.55156250000005 90.2890625 356.38750000000005 94.47265625Z" fill="#DB2777"/>
<path d="M404.70703125000006 103.82421875Q404.70703125000006 108.0078125 401.54882812500006 110.27734375Q398.39062500000006 112.546875 392.70312500000006 112.546875Q387.17968750000006 112.546875 384.18554687500006 110.728515625Q381.19140625000006 108.91015625 380.28906250000006 105.0546875L384.63671875000006 104.20703125Q385.26562500000006 106.5859375 387.23437500000006 107.693359375Q389.20312500000006 108.80078125 392.70312500000006 108.80078125Q396.44921875000006 108.80078125 398.18554687500006 107.65234375Q399.92187500000006 106.50390625 399.92187500000006 104.20703125Q399.92187500000006 102.45703125 398.71875000000006 101.36328125Q397.51562500000006 100.26953125 394.83593750000006 99.55859375L391.30859375000006 98.62890625Q387.07031250000006 97.53515625 385.27929687500006 96.482421875Q383.48828125000006 95.4296875 382.47656250000006 93.92578125Q381.46484375000006 92.421875 381.46484375000006 90.234375Q381.46484375000006 86.1875 384.34960937500006 84.068359375Q387.23437500000006 81.94921875 392.75781250000006 81.94921875Q397.65234375000006 81.94921875 400.53710937500006 83.671875Q403.42187500000006 85.39453125 404.18750000000006 89.1953125L399.75781250000006 89.7421875Q399.34765625000006 87.7734375 397.55664062500006 86.720703125Q395.76562500000006 85.66796875 392.75781250000006 85.66796875Q389.42187500000006 85.66796875 387.83593750000006 86.6796875Q386.25000000000006 87.69140625 386.25000000000006 89.7421875Q386.25000000000006 91.0 386.90625000000006 91.8203125Q387.56250000000006 92.640625 388.84765625000006 93.21484375Q390.13281250000006 93.7890625 394.26171875000006 94.80078125Q398.17187500000006 95.78515625 399.89453125000006 96.619140625Q401.61718750000006 97.453125 402.61523437500006 98.46484375Q403.61328125000006 99.4765625 404.16015625000006 100.802734375Q404.70703125000006 102.12890625 404.70703125000006 103.82421875Z" fill="#DB2777"/>
<path d="M414.19843750000007 87.47265625Q415.78437500000007 84.57421875 418.01289062500007 83.220703125Q420.24140625000007 81.8671875 423.65937500000007 81.8671875Q428.47187500000007 81.8671875 430.75507812500007 84.259765625Q433.03828125000007 86.65234375 433.03828125000007 92.28515625V112.0H428.08906250000007V93.2421875Q428.08906250000007 90.125 427.51484375000007 88.607421875Q426.94062500000007 87.08984375 425.62812500000007 86.37890625Q424.31562500000007 85.66796875 421.99140625000007 85.66796875Q418.51875000000007 85.66796875 416.42695312500007 88.07421875Q414.33515625000007 90.48046875 414.33515625000007 94.5546875V112.0H409.41328125000007V71.421875H414.33515625000007V81.9765625Q414.33515625000007 83.64453125 414.23945312500007 85.421875Q414.14375000000007 87.19921875 414.11640625000007 87.47265625Z" fill="#DB2777"/>
</g></svg>